<svg xmlns="http://www.w3.org/2000/svg" viewBox="0 0 36 45" x="0px" y="0px"><title>Монтажная область 8</title><path d="M20.7.5H15.3A8.22,8.22,0,0,0,7.09,8.71V27.29A8.22,8.22,0,0,0,15.3,35.5h5.4a8.22,8.22,0,0,0,8.21-8.21V8.71A8.22,8.22,0,0,0,20.7.5ZM27,27.29a6.28,6.28,0,0,1-6.27,6.27H15.3A6.28,6.28,0,0,1,9,27.29V8.71A6.28,6.28,0,0,1,15.3,2.44h5.4A6.28,6.28,0,0,1,27,8.71Z"/><path d="M18,7.2a1,1,0,0,0-1,1v4.1a1,1,0,0,0,1.94,0V8.17A1,1,0,0,0,18,7.2Z"/><text x="0" y="51" fill="#000000" font-size="5px" font-weight="bold" font-family="'Helvetica Neue', Helvetica, Arial-Unicode, Arial, Sans-serif">Created by Vadim Solomakhin</text><text x="0" y="56" fill="#000000" font-size="5px" font-weight="bold" font-family="'Helvetica Neue', Helvetica, Arial-Unicode, Arial, Sans-serif">from the Noun Project</text></svg>