<svg width="150" height="153" viewBox="0 0 150 153" fill="none" xmlns="http://www.w3.org/2000/svg">
<path d="M33.1525 56.5741C33.0958 56.7317 33.0305 56.8875 32.9583 57.0382C31.9889 59.0384 29.6359 60.28 27.3672 59.8621C25.2634 59.4734 23.5017 57.6462 23.2044 55.5261C22.9775 53.9146 23.5722 52.2124 24.753 51.0907C25.6897 50.2002 26.965 49.6848 28.2781 49.6711C28.2987 49.6711 28.3211 49.6711 28.3434 49.6711C30.2358 49.6899 32.0645 50.8184 32.9153 52.4984C33.0064 52.6748 33.0855 52.858 33.1525 53.0447H54.0937V46.2461H46.9231C46.8612 46.4224 46.7908 46.5937 46.7083 46.7615C45.7406 48.7634 43.3877 50.005 41.1189 49.5854C39.0152 49.1967 37.2534 47.3712 36.9544 45.2494C36.7292 43.6482 37.3153 41.958 38.4823 40.8363C39.4225 39.9321 40.7012 39.408 42.0281 39.3961C42.0505 39.3961 42.0728 39.3961 42.0952 39.3961C44.0219 39.4149 45.8764 40.5862 46.7083 42.3056C46.7908 42.4734 46.8612 42.6447 46.9231 42.8211H54.0937V37.6836C54.123 37.4284 54.1539 37.1698 54.2639 36.9403C54.4323 36.591 54.7228 36.305 55.0683 36.1406C55.3794 35.9899 55.4756 36.0087 55.8125 35.9711H60.9705V28.8214C59.2225 28.1826 57.8423 26.554 57.5828 24.6977C57.3577 23.0999 57.9403 21.408 59.1091 20.2846C60.0492 19.3804 61.328 18.8563 62.6566 18.8443C62.6772 18.8443 62.6995 18.8443 62.7219 18.8443C64.6262 18.8615 66.4636 20.0054 67.3075 21.6974C68.0053 23.0931 68.0156 24.8056 67.3367 26.2098C66.7541 27.412 65.6712 28.3402 64.408 28.7991V35.9711H71.283V15.1248C71.197 15.094 71.1094 15.0614 71.0234 15.0255C69.3786 14.3439 68.1445 12.7598 67.8953 10.996C67.6719 9.40505 68.2477 7.72509 69.4009 6.60511C70.3428 5.68721 71.637 5.15463 72.9691 5.14264C72.9914 5.14264 73.0137 5.14264 73.0361 5.14264C74.9405 5.15976 76.7778 6.30543 77.6217 7.99566C78.3178 9.39135 78.3298 11.1039 77.6492 12.5081C77.07 13.7086 75.9837 14.623 74.7222 15.0786V35.9711H81.5972V28.8214C79.8492 28.1826 78.4708 26.554 78.2095 24.6977C77.9861 23.1068 78.5619 21.4268 79.7134 20.3051C80.657 19.3889 81.9564 18.8563 83.2833 18.8443C83.3056 18.8443 83.3262 18.8443 83.3486 18.8443C85.253 18.8615 87.0903 20.0054 87.9359 21.6974C88.632 23.0931 88.6423 24.8056 87.9634 26.2098C87.3808 27.412 86.298 28.3402 85.0347 28.7991V35.9711H90.1909L90.5742 36.0139C90.9403 36.1406 91.2978 36.3187 91.535 36.615C91.6966 36.817 91.81 37.0516 91.8667 37.3017C91.8959 37.4267 91.8959 37.5568 91.9114 37.6836V42.8211H99.0923C99.3553 42.083 99.7798 41.4048 100.342 40.8585C101.284 39.9406 102.583 39.408 103.91 39.3961C103.932 39.3961 103.955 39.3961 103.977 39.3961C105.88 39.4132 107.717 40.5571 108.563 42.2491C109.259 43.6448 109.271 45.3573 108.59 46.7615C107.622 48.7634 105.268 50.005 103.001 49.5854C101.234 49.2601 99.7111 47.9209 99.0889 46.2461H91.9114V53.0447H112.863C113.136 52.2997 113.578 51.6147 114.159 51.0702C115.097 50.1899 116.367 49.6848 117.662 49.6711C117.684 49.6711 117.705 49.6711 117.727 49.6711C119.654 49.6899 121.51 50.8612 122.342 52.5823C123.01 53.9643 123.012 55.6528 122.342 57.0382C121.372 59.0384 119.02 60.28 116.752 59.8621C115.005 59.5385 113.494 58.225 112.86 56.5741H91.9114V63.3728H99.0923C99.3622 62.6176 99.8022 61.9206 100.385 61.3674C101.323 60.4769 102.597 59.9598 103.91 59.9478C103.932 59.9478 103.955 59.9478 103.975 59.9478C105.892 59.9666 107.738 61.1243 108.576 62.8299C109.26 64.2205 109.264 65.921 108.59 67.3132C107.622 69.3151 105.268 70.5567 103.001 70.1372C101.234 69.8118 99.7111 68.4726 99.0889 66.7978H91.9114V71.937C91.8667 72.3206 91.7722 72.7076 91.535 73.0039C91.3752 73.206 91.1706 73.3686 90.9369 73.48C90.6258 73.6289 90.5295 73.6118 90.1909 73.6495H85.0347V80.8094C86.2842 81.265 87.3636 82.1897 87.9497 83.3816C88.632 84.7722 88.6372 86.4727 87.9634 87.8667C86.848 90.17 83.8659 91.4304 81.3377 90.3823C79.6894 89.7007 78.457 88.1115 78.2095 86.3545C77.9827 84.7431 78.5773 83.0408 79.7581 81.9191C80.2823 81.4208 80.9131 81.0389 81.5972 80.7975V73.6495H74.7222V94.5129C75.9717 94.9667 77.0511 95.8914 77.6355 97.0833C78.3195 98.4739 78.323 100.174 77.6492 101.567C76.5338 103.872 73.5517 105.132 71.0234 104.084C69.3786 103.402 68.1445 101.818 67.8953 100.056C67.6736 98.4773 68.2373 96.8076 69.3786 95.6842C69.9166 95.1551 70.5714 94.7509 71.283 94.4992V73.6495H64.408V80.8094C65.6575 81.265 66.7369 82.1897 67.323 83.3816C68.0053 84.7722 68.0105 86.4727 67.3367 87.8667C66.2195 90.1717 63.2375 91.4321 60.7109 90.3823C59.0627 89.7007 57.8286 88.1115 57.5828 86.3545C57.3559 84.7431 57.9506 83.0408 59.1314 81.9191C59.6556 81.4208 60.2864 81.0389 60.9705 80.7975V73.6495H55.8125C55.4275 73.605 55.0391 73.5125 54.7417 73.2762C54.5389 73.1152 54.3773 72.9114 54.2639 72.6802C54.1144 72.3685 54.1316 72.2726 54.0937 71.937V66.7978H46.9231C46.8612 66.9742 46.7908 67.1471 46.7083 67.3149C45.7406 69.3151 43.3877 70.5567 41.1189 70.1372C39.0152 69.7484 37.2534 67.9229 36.9544 65.8028C36.7292 64.1896 37.3239 62.4891 38.5047 61.3674C39.4414 60.4769 40.7167 59.9598 42.0281 59.9478C42.0505 59.9478 42.0728 59.9478 42.0952 59.9478C44.0098 59.9666 45.8575 61.1243 46.6945 62.8299C46.7822 63.0063 46.8578 63.1878 46.9231 63.3728H54.0937V56.5741H33.1525V56.5741ZM72.9914 97.6262C71.8605 97.6382 70.9306 98.9671 71.4428 100.061C71.8123 100.847 72.8384 101.257 73.6514 100.926C74.5469 100.561 74.9937 99.3644 74.5005 98.4979C74.2066 97.9841 73.6428 97.6399 73.0361 97.6262C73.0206 97.6262 73.0069 97.6262 72.9914 97.6262V97.6262ZM83.3039 83.9245C82.173 83.9365 81.238 85.2705 81.7605 86.3699C82.1334 87.1491 83.1544 87.555 83.9639 87.2245C84.8559 86.8614 85.3045 85.6695 84.8181 84.8047C84.5259 84.2858 83.9587 83.9399 83.3503 83.9262C83.3348 83.9245 83.3194 83.9245 83.3039 83.9245V83.9245ZM62.6772 83.9245C61.548 83.9365 60.6164 85.2654 61.1303 86.3597C61.4981 87.1457 62.5242 87.555 63.3372 87.2245C64.2292 86.8614 64.6761 85.6695 64.1914 84.8047C63.8992 84.2858 63.3303 83.9399 62.7236 83.9262C62.7081 83.9245 62.6927 83.9245 62.6772 83.9245V83.9245ZM57.533 39.3961V70.2245H88.4722V39.3961H57.533ZM42.0505 63.3728C40.9195 63.3831 39.9845 64.7188 40.507 65.8165C40.8783 66.5974 41.9009 67.0016 42.7105 66.6728C43.6025 66.3097 44.0494 65.1178 43.5647 64.253C43.2725 63.7341 42.7036 63.3865 42.0952 63.3728C42.0814 63.3728 42.0659 63.3728 42.0505 63.3728ZM103.932 63.3728C102.8 63.3831 101.865 64.7188 102.389 65.8165C102.76 66.5974 103.783 67.0016 104.591 66.6728C105.484 66.3097 105.931 65.1178 105.445 64.253C105.154 63.7341 104.585 63.3865 103.977 63.3728C103.962 63.3728 103.946 63.3728 103.932 63.3728V63.3728ZM30.002 54.562C29.978 54.3633 29.9178 54.1681 29.8181 53.9866C29.5277 53.4625 28.957 53.1115 28.3452 53.0978C28.3297 53.0978 28.3142 53.0978 28.2987 53.0978C27.1678 53.108 26.2328 54.4438 26.7553 55.5415C27.1283 56.3224 28.1492 56.7266 28.9587 56.396C29.538 56.1614 29.9298 55.5775 30.002 54.961C29.9866 54.8291 29.9866 54.6955 30.002 54.562V54.562ZM115.991 54.9233C115.996 55.1271 116.043 55.3343 116.135 55.5312C116.503 56.3173 117.529 56.7283 118.342 56.396C119.236 56.033 119.683 54.8428 119.197 53.978C118.904 53.4574 118.337 53.1115 117.729 53.0978C117.713 53.0978 117.698 53.0978 117.682 53.0978C116.795 53.1063 116.029 53.93 115.993 54.8137C115.993 54.8497 115.993 54.8873 115.991 54.9233V54.9233ZM42.0505 42.8211C40.9212 42.8313 39.9845 44.1671 40.507 45.2648C40.8783 46.0457 41.9009 46.4498 42.7105 46.121C43.6025 45.7563 44.0494 44.5661 43.5647 43.7013C43.2725 43.1824 42.7036 42.8348 42.0952 42.8211C42.0814 42.8211 42.0659 42.8211 42.0505 42.8211ZM103.932 42.8211C102.801 42.8313 101.865 44.1671 102.389 45.2648C102.76 46.0457 103.783 46.4498 104.591 46.121C105.484 45.7563 105.931 44.5661 105.445 43.7013C105.154 43.1824 104.585 42.8348 103.977 42.8211C103.962 42.8211 103.946 42.8211 103.932 42.8211V42.8211ZM83.3039 22.2693C82.173 22.2796 81.238 23.6154 81.7605 24.7131C82.1334 25.494 83.1544 25.8981 83.9639 25.5676C84.8559 25.2046 85.3045 24.0144 84.8181 23.1496C84.5259 22.629 83.9587 22.283 83.3503 22.2693C83.3348 22.2693 83.3194 22.2693 83.3039 22.2693V22.2693ZM62.6772 22.2693C61.9175 22.2762 61.1939 22.8379 61.0169 23.5846C60.8295 24.3637 61.2764 25.2457 62.0206 25.5608C62.9694 25.9598 64.2172 25.3142 64.3856 24.2541C64.5386 23.3037 63.7652 22.2916 62.7236 22.2693C62.7081 22.2693 62.6927 22.2693 62.6772 22.2693ZM72.9914 8.56764C71.8605 8.57791 70.9255 9.91366 71.448 11.0114C71.8192 11.7923 72.8419 12.1964 73.6514 11.8676C74.5434 11.5029 74.9903 10.3127 74.5056 9.44786C74.2134 8.92898 73.6445 8.58134 73.0361 8.56764C73.0206 8.56764 73.0069 8.56764 72.9914 8.56764V8.56764Z" fill="black"/>
</svg>
