<?xml version="1.0" encoding="utf-8"?>
<!-- Generator: Adobe Illustrator 23.0.6, SVG Export Plug-In . SVG Version: 6.00 Build 0)  -->
<svg version="1.1" id="Layer_1" xmlns="http://www.w3.org/2000/svg" xmlns:xlink="http://www.w3.org/1999/xlink" x="0px" y="0px"
	 viewBox="0 0 822 351" style="enable-background:new 0 0 822 351;" xml:space="preserve">
<style type="text/css">
	.st0{fill-rule:evenodd;clip-rule:evenodd;fill:#2052C9;}
	.st1{fill-rule:evenodd;clip-rule:evenodd;}
</style>
<path id="Forma_1" class="st0" d="M140.9,38.6H19.1C9,38.7,0.7,46.9,0.7,57.1v236.8c0,10.2,8.3,18.4,18.4,18.5h121.7
	c10.2,0,18.4-8.3,18.4-18.5V57.1C159.3,46.9,151,38.7,140.9,38.6z M60.5,51.9h38.9c1.2,0,2.2,1,2.2,2.2s-1,2.2-2.2,2.2H60.5
	c-1.2,0-2.2-1-2.2-2.2S59.3,51.9,60.5,51.9z M80,303.2c-5.1,0-9.3-4.1-9.3-9.2s4.1-9.3,9.2-9.3c5.1,0,9.3,4.1,9.3,9.2c0,0,0,0,0,0
	C89.2,299,85.1,303.1,80,303.2z M146.5,278.2H13.5V67.9h132.9V278.2z M78.6,127.1v96c0,0-25.7-20.8-30.8-30.9
	c-5.8-11.5-7.6-42.4-3.9-52.6L78.6,127.1z M116,139.5c3.8,10.3,2,41.2-3.9,52.6c-5.1,10-30.8,30.9-30.8,30.9v-96L116,139.5z"/>
<path id="iRepair" class="st1" d="M244,128.3c-0.1,3.1,1.2,6,3.6,8.1c5.5,4.3,13.3,4.3,18.8,0c2.3-2,3.6-5,3.6-8.1
	c0.1-3.1-1.2-6.1-3.6-8.2c-5.5-4.3-13.3-4.3-18.8,0C245.2,122.2,243.9,125.2,244,128.3L244,128.3z M246,148.2v70.9h21.7v-70.9
	L246,148.2L246,148.2z M352.8,219.1l-21.3-35.3c6.9-1.7,12.1-4.8,15.7-9.4c3.7-4.8,5.6-10.6,5.4-16.6c0.1-5.1-1.2-10.2-3.7-14.7
	c-2.6-4.4-6.4-7.9-11.1-10.1c-4.9-2.5-10.9-3.7-18-3.7h-37.1v89.8h21.7v-33.9h5l19.4,33.9L352.8,219.1L352.8,219.1z M304.4,147.6
	h13.5c4.2,0,7.4,1,9.5,3s3.1,4.8,3.1,8.4c0,3.7-1,6.5-3,8.4c-2,1.9-5.2,2.9-9.5,2.9h-13.5V147.6z M430.8,181.8
	c0.1-6.3-1.4-12.5-4.4-18c-2.9-5.2-7.2-9.4-12.4-12.1c-11.7-5.8-25.4-5.8-37.1,0.1c-5.4,2.9-9.8,7.2-12.6,12.6
	c-3,5.5-4.5,11.9-4.5,19.4c-0.2,6.7,1.4,13.4,4.6,19.3c2.9,5.4,7.3,9.7,12.6,12.6c10.8,5.5,23.5,5.8,34.6,1
	c4.7-2.1,8.7-5.3,11.9-9.3c3.1-3.9,5.2-8.5,6.1-13.4h-23c-0.6,2.5-2.1,4.7-4.2,6.2c-2.3,1.7-5.1,2.5-8,2.4c-3.5,0.1-6.9-1.1-9.4-3.5
	c-2.5-2.3-3.8-6.2-4.1-11.5h49.1C430.5,185.7,430.7,183.7,430.8,181.8L430.8,181.8L430.8,181.8z M408.8,178.5h-27.7
	c0.3-4.6,1.8-8,4.4-10.4c2.7-2.4,6.3-3.7,9.9-3.6c3.5-0.1,7,1.1,9.6,3.5C407.6,170.3,408.9,173.8,408.8,178.5L408.8,178.5
	L408.8,178.5z M486.3,147.3c-4.9-0.1-9.8,1.1-14,3.7c-3.8,2.4-6.8,5.9-8.5,10v-12.8h-21.7v104.6h21.7v-46.6c1.7,4.2,4.7,7.7,8.5,10
	c4.2,2.5,9.1,3.8,14,3.7c5.5,0.1,11-1.4,15.7-4.4c4.8-3.1,8.6-7.5,10.9-12.6c2.8-6,4.2-12.6,4-19.3c0.2-6.7-1.2-13.3-4-19.4
	c-2.4-5.1-6.2-9.5-10.9-12.6C497.3,148.8,491.8,147.3,486.3,147.3L486.3,147.3L486.3,147.3z M479.3,166.4c4.2-0.2,8.3,1.5,11.2,4.6
	c2.8,3,4.3,7.3,4.3,12.7c0,5.4-1.4,9.7-4.3,12.7c-6.3,6.1-16.3,6.1-22.5-0.1c-2.9-3.1-4.4-7.3-4.4-12.6c0-5.3,1.5-9.5,4.4-12.6
	C470.9,167.9,475,166.3,479.3,166.4L479.3,166.4z M555.1,147.3c-5.5-0.1-11,1.4-15.7,4.4c-4.8,3.1-8.5,7.4-10.9,12.6
	c-2.7,5.5-4,11.9-4,19.4c-0.2,6.7,1.2,13.3,4,19.3c2.4,5.2,6.2,9.5,10.9,12.6c4.7,2.9,10.1,4.5,15.7,4.4c4.9,0.1,9.8-1.1,14-3.7
	c3.8-2.4,6.8-5.9,8.6-10v12.8h21.6v-70.9h-21.6v12.8c-1.8-4.1-4.8-7.6-8.6-10C564.9,148.5,560,147.2,555.1,147.3L555.1,147.3
	L555.1,147.3z M562.1,166.4c4.2-0.1,8.3,1.6,11.2,4.6c2.9,3.1,4.4,7.3,4.4,12.6c0,5.3-1.5,9.4-4.4,12.6c-6.2,6.2-16.2,6.3-22.5,0.1
	c-2.8-3-4.3-7.3-4.3-12.7c0-5.4,1.4-9.7,4.3-12.7C553.7,167.9,557.8,166.2,562.1,166.4L562.1,166.4z M612.2,128.3
	c-0.1,3.1,1.2,6,3.6,8.1c5.5,4.3,13.3,4.3,18.8,0c2.3-2,3.6-5,3.6-8.1c0.1-3.1-1.2-6.1-3.6-8.2c-5.5-4.3-13.3-4.3-18.8,0
	C613.5,122.2,612.2,125.2,612.2,128.3L612.2,128.3z M614.3,148.2v70.9H636v-70.9L614.3,148.2L614.3,148.2z M672.7,161.6v-13.3H651
	v70.9h21.7v-32.3c0-5.8,1.6-10,4.8-12.4c3.2-2.5,7.6-3.7,13.4-3.7h6.2v-23.2c-4.9,0-9.7,1.3-13.9,3.8
	C678.9,153.8,675.3,157.4,672.7,161.6L672.7,161.6L672.7,161.6z"/>
</svg>
