<svg width="102" height="92" viewBox="0 0 102 92" fill="none" xmlns="http://www.w3.org/2000/svg">
<path d="M98.3685 50.502C93.9892 37.9975 86.3588 27.872 78.4537 24.0778C74.8967 22.3717 71.4013 22.0387 68.357 23.1115C66.6245 23.7059 65.0685 24.7383 63.7311 26.1799C62.3339 27.6876 60.634 28.5178 58.945 28.5178H53.2743L53.2447 21.8255C53.2299 18.5144 50.5241 15.8211 47.2138 15.8211H19.6319C18.8687 15.8211 18.1522 15.5231 17.6139 14.9816C17.0763 14.4409 16.783 13.7221 16.7876 12.9589C16.7977 11.4006 18.0736 10.1325 19.6319 10.1325H62.3806C65.7057 10.1325 68.4115 7.42663 68.4115 4.10153V1.59331C68.4115 0.713411 67.6981 0 66.8182 0C65.9383 0 65.2249 0.713411 65.2249 1.59331V4.10153C65.2249 5.66994 63.949 6.94583 62.3806 6.94583H19.6319C16.3278 6.94583 13.622 9.63454 13.601 12.9386C13.5909 14.5568 14.2133 16.0801 15.3538 17.2277C16.4943 18.376 18.0137 19.0077 19.6319 19.0077H47.2138C48.7752 19.0077 50.0511 20.2781 50.0581 21.8395L50.0875 28.5178H43.0041C41.3198 28.5178 39.6245 27.6939 38.2312 26.1978C36.9016 24.771 35.3542 23.7347 33.6263 23.1154C30.5688 22.0387 27.0733 22.3709 23.5172 24.0778C15.6121 27.872 7.98164 37.9975 3.60315 50.4989C-0.808792 63.0213 -1.19623 75.7055 2.59099 83.6013C4.29633 87.1567 6.81778 89.6042 9.87759 90.6778C11.0695 91.1003 12.308 91.3057 13.58 91.3057C21.0199 91.3049 29.5567 84.2735 35.8607 72.5353C36.9242 70.5553 38.9656 69.3253 41.1875 69.3253H60.7834C63.0053 69.3253 65.0467 70.5553 66.1102 72.5353C73.4925 86.2807 83.9377 93.5696 92.091 90.6786C95.1547 89.6027 97.6753 87.1551 99.3799 83.6013C103.167 75.7055 102.78 63.0213 98.3685 50.502ZM96.5068 82.2227C95.1562 85.0382 93.3147 86.8719 91.0329 87.6733C91.0313 87.6733 91.0298 87.674 91.0275 87.6748C84.5173 89.9839 75.4219 83.14 68.9172 71.0275C67.2974 68.0121 64.1808 66.1387 60.7834 66.1387H41.1875C37.7901 66.1387 34.6735 68.0121 33.0537 71.0275C26.5482 83.1407 17.4528 89.9792 10.938 87.6733C8.65615 86.8719 6.81466 85.0382 5.46409 82.2227C2.02929 75.0614 2.46807 63.3115 6.61005 51.5554C10.6571 39.9977 17.8348 30.3398 24.8958 26.9509C27.7128 25.5995 30.2934 25.3195 32.5597 26.1185C33.7967 26.5611 34.9201 27.3189 35.8996 28.3699C37.9029 30.5203 40.4259 31.7044 43.0041 31.7044H51.688H51.695H58.945C61.5318 31.7044 64.0618 30.5117 66.0682 28.3466C67.043 27.2948 68.1617 26.5479 69.4042 26.1216C71.6798 25.3202 74.2588 25.5995 77.0751 26.9509C84.1361 30.3398 91.3138 39.9977 95.3616 51.5585C99.5028 63.3115 99.9416 75.0614 96.5068 82.2227Z" fill="black"/>
<path d="M34.3452 48.6543H27.9105V42.2196C27.9105 41.3397 27.197 40.6263 26.3171 40.6263C25.4373 40.6263 24.7238 41.3397 24.7238 42.2196V48.6543H18.2891C17.4092 48.6543 16.6958 49.3677 16.6958 50.2476C16.6958 51.1275 17.4092 51.8409 18.2891 51.8409H24.7238V58.2756C24.7238 59.1555 25.4373 59.8689 26.3171 59.8689C27.197 59.8689 27.9105 59.1555 27.9105 58.2756V51.8409H34.3452C35.2251 51.8409 35.9385 51.1275 35.9385 50.2476C35.9385 49.3677 35.2251 48.6543 34.3452 48.6543Z" fill="black"/>
<path d="M74.64 45.61C77.0417 45.61 78.996 43.6557 78.996 41.2541C78.996 38.8517 77.0417 36.8974 74.64 36.8974C72.2384 36.8974 70.2841 38.8517 70.2841 41.2541C70.2841 43.6557 72.2384 45.61 74.64 45.61ZM74.64 40.084C75.285 40.084 75.8093 40.6092 75.8093 41.2541C75.8093 41.8991 75.285 42.4234 74.64 42.4234C73.9951 42.4234 73.4707 41.8991 73.4707 41.2541C73.4707 40.6092 73.9951 40.084 74.64 40.084Z" fill="black"/>
<path d="M74.64 52.5419C72.2384 52.5419 70.2841 54.4962 70.2841 56.8986C70.2841 59.3002 72.2384 61.2545 74.64 61.2545C77.0417 61.2545 78.996 59.3002 78.996 56.8986C78.996 54.4962 77.0417 52.5419 74.64 52.5419ZM74.64 58.0679C73.9951 58.0679 73.4707 57.5435 73.4707 56.8986C73.4707 56.2536 73.9951 55.7285 74.64 55.7285C75.285 55.7285 75.8093 56.2536 75.8093 56.8986C75.8093 57.5435 75.285 58.0679 74.64 58.0679Z" fill="black"/>
<path d="M82.4626 44.72C80.0602 44.72 78.1059 46.6743 78.1059 49.076C78.1059 51.4776 80.0602 53.4319 82.4626 53.4319C84.8643 53.4319 86.8186 51.4776 86.8186 49.076C86.8186 46.6743 84.8643 44.72 82.4626 44.72ZM82.4626 50.2453C81.8177 50.2453 81.2926 49.7209 81.2926 49.076C81.2926 48.431 81.8177 47.9067 82.4626 47.9067C83.1076 47.9067 83.632 48.431 83.632 49.076C83.632 49.7209 83.1076 50.2453 82.4626 50.2453Z" fill="black"/>
<path d="M66.8182 44.72C64.4158 44.72 62.4615 46.6743 62.4615 49.076C62.4615 51.4776 64.4158 53.4319 66.8182 53.4319C69.2198 53.4319 71.1741 51.4776 71.1741 49.076C71.1741 46.6743 69.2198 44.72 66.8182 44.72ZM66.8182 50.2453C66.1732 50.2453 65.6481 49.7209 65.6481 49.076C65.6481 48.431 66.1732 47.9067 66.8182 47.9067C67.4631 47.9067 67.9875 48.431 67.9875 49.076C67.9875 49.7209 67.4631 50.2453 66.8182 50.2453Z" fill="black"/>
</svg>
