<svg width="96" height="120" viewBox="0 0 96 120" fill="none" xmlns="http://www.w3.org/2000/svg">
<g clip-path="url(#clip0)">
<path d="M72 6C64.8 6 58.2023 9.00117 53.4023 14.7012C53.1023 15.3012 53.1012 16.1988 53.7012 16.7988C54.3012 17.0988 55.1988 17.1 55.7988 16.5C59.9988 11.7 65.7 9 72 9C83.7 9 93 18.3 93 30C93 41.7 83.7 51 72 51C67.8 51 63.6 49.4977 60 47.0977C59.4 46.4977 58.5023 46.8023 57.9023 47.4023C57.3023 48.0023 57.6012 48.9 58.2012 49.5C62.4012 52.5 66.9 54 72 54C85.2 54 96 43.2 96 30C96 16.8 85.2 6 72 6ZM39.4688 8.94727C38.8312 8.90508 38.175 8.925 37.5 9L19.5 12C17.1 12.6 15 13.8023 13.5 15.9023C12 18.0023 11.4 20.3988 12 22.7988L13.8926 30H13.5C11.1 30 9 32.1 9 34.5V37.5C9 39.9 11.1 42 13.5 42H15.2754C16.0811 46.74 18.747 50.8556 22.5 53.5723V59.4023C22.5 59.4356 22.5111 59.4687 22.5117 59.502L9.59766 63.9023C5.86245 65.2785 2.92845 68.0807 1.33008 71.5312C1.12562 71.9396 0.961905 72.3612 0.808594 72.791C0.760937 72.9266 0.705657 73.0581 0.662109 73.1953C0.487545 73.7452 0.358196 74.2984 0.257812 74.8594C0.229483 75.0108 0.187399 75.1578 0.164062 75.3105C0.0612527 76.0171 0 76.7235 0 77.4023V88.5C0 89.4 0.6 90 1.5 90H64.5C64.725 90 64.9383 89.9602 65.1211 89.8945C65.3157 89.824 65.4779 89.7187 65.6133 89.5957C65.9183 89.3328 66.1472 88.955 66.2988 88.5V77.4023C66.2988 75.0023 65.4012 72.3012 64.2012 70.2012C64.087 70.087 63.8994 69.9824 63.7148 69.8848C62.0173 67.2271 59.4893 65.176 56.4023 64.2012L43.459 59.7949C43.4681 59.664 43.5 59.5333 43.5 59.4023V53.5723C47.2544 50.8556 49.9187 46.7411 50.7246 42H52.5C54.9 42 57 39.9 57 37.5V34.5C57 32.1 54.9 30 52.5 30H52.2012L53.7012 25.7988C54.3012 23.6988 53.7012 21.3 52.2012 19.5C51.0012 18 49.5012 17.0988 47.7012 16.7988C47.4012 14.6988 46.5012 12.5977 44.7012 11.0977C43.1262 9.74766 41.3812 9.07383 39.4688 8.94727ZM39.4395 11.8945C40.7613 11.9086 42.0023 12.3012 42.9023 13.2012C44.1023 14.4012 45 16.2 45 18C45 18.9 45.6 19.4988 46.5 19.7988C48 19.7988 49.1977 20.3977 50.0977 21.5977C50.9977 22.4977 51.3 24.0012 51 25.2012L48.2109 33H48C47.1 33 46.5 32.4 46.5 31.5C46.5 29.1 44.4 27 42 27H24C21.6 27 19.5 29.1 19.5 31.5C19.5 32.4 18.9 33 18 33H17.8418L15 22.2012C14.7 20.4012 15.3012 18.9023 16.2012 17.4023C17.1012 16.2023 18.5977 15.3 20.0977 15L38.0977 12C38.5477 11.925 38.9988 11.8898 39.4395 11.8945ZM74.5078 12.3633C73.9875 12.3211 73.4262 12.825 73.2012 13.5L71.4023 17.0977C71.1023 17.6977 71.1023 18.2977 71.4023 18.5977L74.0625 22.3242L67.6289 35.7305L63 36C62.4 36 62.0988 36.3023 61.7988 36.9023L60 40.5C59.4 41.4 59.9977 42.2977 60.5977 42.5977C61.4977 43.1977 62.4012 42.9 62.7012 42L64.2012 39L67.7988 38.7012L69.9023 41.7012L68.4023 44.7012C67.8023 45.6012 68.4 46.4988 69 46.7988H69.5977C70.1977 46.7988 70.4988 46.4977 70.7988 45.5977L72.5977 42C72.8977 41.4 72.8977 40.8 72.5977 40.5L70.3008 37.2891L77.0449 23.2383L81 22.7988C81.6 22.7988 81.9012 22.5023 82.2012 21.9023L84 18.2988C84.3 17.6988 84.0023 16.7988 83.4023 16.7988C82.5023 16.1988 81.5988 16.8023 81.2988 17.4023L79.7988 20.4023L77.0977 20.625C77.0009 20.5414 76.9016 20.4537 76.7988 20.4023C76.4677 20.1816 76.1509 20.1587 75.8496 20.2031L74.0977 17.7012L75.5977 14.7012C76.1977 13.8012 75.6 12.8977 75 12.5977C74.85 12.4477 74.6812 12.3773 74.5078 12.3633ZM24 30H42C42.9 30 43.5 30.6 43.5 31.5C43.5 33.9 45.6 36 48 36V39C48 47.4 41.4 54 33 54C24.6 54 18 47.4 18 39V36C20.4 36 22.5 33.9 22.5 31.5C22.5 30.6 23.1 30 24 30ZM13.5 33H14.6836L15 34.2012C15.01 34.2311 15.0245 34.254 15.0352 34.2832C15.0261 34.3575 15 34.4208 15 34.5V39H13.5C12.6 39 12 38.4 12 37.5V34.5C12 33.6 12.6 33 13.5 33ZM51.1289 33H52.5C53.4 33 54 33.6 54 34.5V37.5C54 38.4 53.4 39 52.5 39H51V34.5C51 34.2361 50.9374 34.0075 50.8418 33.8027L51.1289 33ZM25.5 55.3359C27.7883 56.3949 30.3243 57 33 57C35.6757 57 38.2117 56.3949 40.5 55.3359V59.4023C40.5 60.0023 39.8988 60.8988 39.2988 61.7988C37.7988 63.5988 35.4 64.7988 33 64.7988C30.6 64.7988 28.2012 63.5988 26.7012 61.7988C25.8012 60.8988 25.5 60.3023 25.5 59.4023V55.3359ZM23.2559 62.2559C23.5342 62.8043 23.8601 63.3539 24.2988 63.9023C26.3988 66.6023 29.7 68.0977 33 68.0977C36.3 68.0977 39.6012 66.6023 41.7012 63.9023C42.0718 63.4391 42.3649 62.977 42.6211 62.5137L55.5 66.9023C57.388 67.5317 58.9852 68.6534 60.2344 70.0781C53.0995 71.9824 48 78.5439 48 86.0977V87H18V86.0977C18 78.4597 12.7708 71.8743 5.73633 70.0547C6.98931 68.5715 8.59726 67.3588 10.5 66.5977L23.2559 62.2559ZM61.7988 72.5977C62.1738 73.2227 62.4249 73.9041 62.6133 74.5898C62.6663 74.7955 62.7183 75.0011 62.7598 75.2109C62.913 75.963 63 76.7182 63 77.4023V87H50.7012V86.0977C50.7012 79.4977 55.4988 73.7977 61.7988 72.5977ZM4.06055 72.6504C10.2799 74.2042 15 79.5549 15 86.0977V87H3V77.4023C3 76.7986 3.08444 76.1306 3.18164 75.4688C3.35167 74.4842 3.64938 73.5398 4.06055 72.6504Z" fill="black"/>
</g>
<defs>
<clipPath id="clip0">
<rect width="96" height="120" fill="white"/>
</clipPath>
</defs>
</svg>
