<svg width="150" height="150" viewBox="0 0 150 150" fill="none" xmlns="http://www.w3.org/2000/svg">
<path d="M96.8996 8H58.6303C55.8124 8.0045 53.1111 9.12592 51.1185 11.1185C49.1259 13.1111 48.0045 15.8124 48 18.6303V96.8697C48.0045 99.6876 49.1259 102.389 51.1185 104.381C53.1111 106.374 55.8124 107.495 58.6303 107.5H96.8996C99.7175 107.495 102.419 106.374 104.411 104.381C106.404 102.389 107.525 99.6876 107.53 96.8697V18.6303C107.525 15.8124 106.404 13.1111 104.411 11.1185C102.419 9.12592 99.7175 8.0045 96.8996 8V8ZM103.278 96.8697C103.278 98.5613 102.606 100.184 101.41 101.38C100.213 102.576 98.5912 103.248 96.8996 103.248H58.6303C56.9387 103.248 55.3164 102.576 54.1203 101.38C52.9241 100.184 52.2521 98.5613 52.2521 96.8697V18.6303C52.2521 16.9387 52.9241 15.3164 54.1203 14.1203C55.3164 12.9241 56.9387 12.2521 58.6303 12.2521H96.8996C98.5912 12.2521 100.213 12.9241 101.41 14.1203C102.606 15.3164 103.278 16.9387 103.278 18.6303V96.8697Z" fill="black"/>
<path d="M84.5684 19.4128H70.9615C70.3977 19.4128 69.8569 19.6367 69.4582 20.0355C69.0595 20.4342 68.8355 20.975 68.8355 21.5388C68.8355 22.1027 69.0595 22.6435 69.4582 23.0422C69.8569 23.4409 70.3977 23.6649 70.9615 23.6649H84.5684C85.1322 23.6649 85.673 23.4409 86.0717 23.0422C86.4705 22.6435 86.6944 22.1027 86.6944 21.5388C86.6944 20.975 86.4705 20.4342 86.0717 20.0355C85.673 19.6367 85.1322 19.4128 84.5684 19.4128Z" fill="black"/>
<path d="M84.5684 91.8351H70.9615C70.3977 91.8351 69.8569 92.0591 69.4582 92.4579C69.0595 92.8566 68.8355 93.3973 68.8355 93.9612C68.8355 94.5251 69.0595 95.0659 69.4582 95.4646C69.8569 95.8633 70.3977 96.0873 70.9615 96.0873H84.5684C85.1322 96.0873 85.673 95.8633 86.0717 95.4646C86.4705 95.0659 86.6944 94.5251 86.6944 93.9612C86.6944 93.3973 86.4705 92.8566 86.0717 92.4579C85.673 92.0591 85.1322 91.8351 84.5684 91.8351Z" fill="black"/>
</svg>
