<svg width="101" height="94" viewBox="0 0 101 94" fill="none" xmlns="http://www.w3.org/2000/svg">
<path d="M77.5671 65.6021L86.9517 64.0684C80.2661 79.1332 65.2111 89.0526 48.4722 89.0526V94C67.6129 94 84.7975 82.349 91.9784 64.8105L100.694 69.9558C97.0545 63.7716 94.306 54.3963 93.0431 47C89.1803 53.4316 83.2128 61.1742 77.5671 65.6021Z" fill="black"/>
<path d="M6.57155 26.79L0.166668 20.7789L4.46919 47L19.5525 25.2316L11.5097 27.7795C18.5991 13.8032 32.7778 4.94737 48.4722 4.94737V0C30.4554 0 14.2476 10.4389 6.57155 26.79Z" fill="black"/>
<path d="M48.4722 74.6175C33.2324 74.6175 20.8547 62.2399 20.8547 47H15.8333C15.8333 65.0016 30.4706 79.6389 48.4722 79.6389V74.6175Z" fill="black"/>
<path d="M76.0897 47H81.1111C81.1111 28.9984 66.4738 14.3611 48.4722 14.3611V19.3825C63.7121 19.3825 76.0897 31.7602 76.0897 47Z" fill="black"/>
<path d="M62.8333 47C62.8333 39.0775 56.3948 32.6389 48.4722 32.6389C40.5497 32.6389 34.1111 39.0775 34.1111 47C34.1111 54.9225 40.5497 61.3611 48.4722 61.3611C56.3948 61.3611 62.8333 54.9225 62.8333 47ZM38.8982 47C38.8982 41.7103 43.1825 37.4259 48.4722 37.4259C53.7619 37.4259 58.0463 41.7103 58.0463 47C58.0463 52.2897 53.7619 56.5741 48.4722 56.5741C43.1825 56.5741 38.8982 52.2897 38.8982 47Z" fill="black"/>
</svg>
