<?xml version="1.0" encoding="utf-8"?>
<!-- Generator: Adobe Illustrator 23.0.6, SVG Export Plug-In . SVG Version: 6.00 Build 0)  -->
<svg version="1.1" id="Capa_1" xmlns="http://www.w3.org/2000/svg" xmlns:xlink="http://www.w3.org/1999/xlink" x="0px" y="0px"
	 viewBox="0 0 512 468.9" style="enable-background:new 0 0 512 468.9;" xml:space="preserve">
<style type="text/css">
	.st0{fill:#454A50;}
</style>
<g>
	<path class="st0" d="M479.9,303.9v-137l5.7-1.7c21.9-6.6,26.4-17.7,26.4-25.8c0-8.2-4.6-19.3-26.4-25.8l-187-56.1
		C287,54,271.9,52.1,256,52.1s-31,1.9-42.5,5.4l-187,56.1C4.6,120.1,0,131.2,0,139.4s4.6,19.3,26.4,25.8l70,21v73.7
		c0,14,9.1,33.8,52.6,48.3c28.8,9.6,66.8,14.9,107,14.9s78.2-5.3,107-14.9c43.5-14.5,52.6-34.3,52.6-48.3v-73.7l34.3-10.3v128
		c-18.7,6.3-32.1,23.9-32.1,44.7v64.3c0,26,21.1,47.1,47.1,47.1s47.1-21.1,47.1-47.1v-64.3C512,327.8,498.5,310.1,479.9,303.9
		L479.9,303.9z M222.1,86.2c8.7-2.6,21-4.1,33.9-4.1s25.2,1.5,33.9,4.1l177.3,53.2l-71,21.3h-0.1l-106.2,31.9
		c-8.7,2.6-21,4.1-33.9,4.1s-25.2-1.5-33.9-4.1l-106.2-31.9h-0.1l-71-21.3L222.1,86.2z M385.6,259.9c0,1.9-5.4,11-32.1,19.9
		c-25.8,8.6-60.5,13.3-97.5,13.3c-37.1,0-71.7-4.7-97.5-13.3c-26.6-8.9-32.1-17.9-32.1-19.9v-64.7l87.1,26.1
		c11.5,3.5,26.6,5.4,42.5,5.4s31-1.9,42.5-5.4l87.1-26.1V259.9z M482,412.8c0,9.4-7.7,17.1-17.1,17.1s-17.1-7.7-17.1-17.1v-64.3
		c0-9.4,7.7-17.1,17.1-17.1s17.1,7.7,17.1,17.1V412.8z"/>
</g>
</svg>
