<?xml version="1.0" encoding="utf-8"?>
<!-- Generator: Adobe Illustrator 23.0.6, SVG Export Plug-In . SVG Version: 6.00 Build 0)  -->
<svg version="1.1" id="Layer_1" xmlns="http://www.w3.org/2000/svg" xmlns:xlink="http://www.w3.org/1999/xlink" x="0px" y="0px"
	 viewBox="0 0 512 512" style="enable-background:new 0 0 512 512;" xml:space="preserve">
<style type="text/css">
	.st0{fill:#454A50;}
</style>
<g>
	<path class="st0" d="M503.2,221.9h-42v-51.2h42c3.1,0,5.9-1.6,7.4-4.3c1.5-2.6,1.5-5.9,0-8.5c-12.9-22.3-36.2-36.6-61.9-38.1
		l-16.5-28.7c-4.3-7.5-13.6-10.6-21.6-7.1l-43.9,19l19-43.7c3.6-8,0.6-17.3-7-21.7l-31.3-18c-7.5-4.3-17-2.3-22.2,4.6l-28.6,38.6
		l-5.3-47.7c-1-8.6-8.3-15.1-17-15.1h-36.9c-8.7,0-16,6.5-17,15.1l-5.1,47.5l-0.2-0.3l-28.3-38c-5-7.1-14.7-9.2-22.2-4.8l-30.9,17.8
		c-7.6,4.3-10.7,13.6-7.2,21.6l18.9,43.6l-43.5-19C94,80,84.8,83,80.5,90.5l-16.9,29.3c-25.5,1.6-48.6,15.9-61.4,38.1
		c-1.5,2.6-1.5,5.9,0,8.5c1.5,2.6,4.4,4.3,7.4,4.3h42v51.2h-42c-3.1,0-5.9,1.6-7.4,4.3c-1.5,2.6-1.5,5.9,0,8.5
		c18.7,32.6,58.4,46.8,93.5,33.4c-0.9,4.4-1.4,8.9-1.5,13.4c0,0.7,0.1,1.4,0.3,2.1l17.1,68.6c8.7,25.1,23.2,47.9,42.3,66.3v50.8
		c0,23.6,19.1,42.6,42.7,42.7h119.5c23.6,0,42.6-19.1,42.7-42.7v-48.1c23.8-20,41.2-46.4,50.2-76.2c0.1-0.4,0.2-0.8,0.3-1.2
		l12.4-74.3c7.3,2.3,14.9,3.4,22.5,3.4c27.4,0,52.8-14.7,66.5-38.4c1.5-2.6,1.5-5.9,0-8.5C509.1,223.5,506.2,221.9,503.2,221.9z
		 M138.6,118.1c6.4,2.8,14,1.4,18.9-3.6c5-5,6.4-12.5,3.5-18.9l-19-43.4l30.9-17.9l28.1,37.9c0.5,0.8,1,1.5,1.7,2.2
		c0.2,0.2,0.5,0.4,0.7,0.6c4.5,4.2,11,5.7,16.9,3.8c6.4-2,10.9-7.7,11.6-14.4l5.4-47.3h36.9l5.3,47.6c0.7,7,5.7,12.8,12.5,14.7
		c6.8,1.8,14-0.7,18.2-6.4l28.5-38.7l31.2,18l-19,43.9c-2.8,6.4-1.4,13.9,3.6,18.9c5,5,12.5,6.4,18.9,3.6l43.8-19.1l12.3,21.3
		c-12.6,2.4-24.4,8-34.4,16.2c-4.8-5.8-11.9-9.1-19.5-9.1h-17.1c-6.3,0-12.4,2.4-17.1,6.7c-4-3.6-8.9-5.8-14.2-6.4
		c-25.8-21.6-59.9-30.3-92.9-23.7c-33,6.6-61.2,27.8-76.6,57.6h-20.5c-10.7-21.7-31-37-54.8-41.2l12.5-21.7L138.6,118.1z
		 M350.3,153.6c0-4.7,3.8-8.5,8.5-8.5h17.1c4.7,0,8.5,3.8,8.5,8.5v85.3c0,4.7-3.8,8.5-8.5,8.5h-17.1c-4.7,0-8.5-3.8-8.5-8.5V153.6z
		 M290.5,134.7c-4.7-4.3-10.7-6.6-17.1-6.7h-17.1c-6.3,0-12.4,2.4-17.1,6.7c-4.7-4.3-10.7-6.6-17.1-6.7h-4.9
		c26-11.9,56-11.3,81.5,1.6C295.8,130.8,293,132.5,290.5,134.7z M179.6,162.1h-1.9c0.6-0.9,1.3-1.8,1.9-2.7V162.1z M196.7,153.6
		c0-4.7,3.8-8.5,8.5-8.5h17.1c4.7,0,8.5,3.8,8.5,8.5v59.7h-34.1V153.6z M247.9,153.6c0-4.7,3.8-8.5,8.5-8.5h17.1
		c4.7,0,8.5,3.8,8.5,8.5v61.2c-2.7-1-5.6-1.5-8.5-1.5h-25.6V153.6z M299.1,153.6c0-4.7,3.8-8.5,8.5-8.5h17.1c4.7,0,8.5,3.8,8.5,8.5
		v85.3c0,4.7-3.8,8.5-8.5,8.5h-17.1c-4.7,0-8.5-3.8-8.5-8.5V153.6z M26.9,238.9h33.2c4.7,0,8.5-3.8,8.5-8.5v-68.3
		c0-4.7-3.8-8.5-8.5-8.5H26.9c14.2-13.9,34.5-19.9,54-15.8c19.5,4.1,35.7,17.6,43.1,36.1c1.3,3.2,4.4,5.3,7.9,5.3h47.7v34.1h-47.7
		c-3.5,0-6.6,2.1-7.9,5.3c-1.4,3.6-3.2,7-5.4,10.2c-4.7,4-8.8,8.6-12.2,13.7C82.9,261.8,48.6,260.3,26.9,238.9z M392.5,340.5
		c-8.6,27.8-25.3,52.3-47.9,70.6c-1.8,1.6-2.9,3.9-2.9,6.4v51.9c0,14.1-11.5,25.6-25.6,25.6H196.7c-14.1,0-25.6-11.5-25.6-25.6
		v-54.4c0-2.3-0.9-4.5-2.6-6.1c-9.6-9.3-32.6-33.8-40.3-61l-16.8-67.3c0.1-4.7,0.8-9.4,2.1-13.9c5.6-19,21.6-33.1,41.2-36.2h118.8
		c2.3-0.1,4.5,0.8,6.1,2.4s2.5,3.8,2.4,6.1c0,23.6-19.1,42.6-42.7,42.7h-59.7v17.1h27.2l2.7,1.6c17.7,10.8,32.9,20.1,38.7,43.1
		c3.1,12.7,3.1,26,0,38.7l16.6,3.9c3.7-15.3,3.7-31.3,0-46.7c-4-16.3-13.5-30.7-27.1-40.6h1.6c24.5,0,46.4-15,55.4-37.7
		c3.9,2.3,8.3,3.6,12.8,3.6h17.1c6.3,0,12.4-2.4,17.1-6.7c4.7,4.3,10.8,6.6,17.1,6.7h17.1c11.6,0,21.7-7.9,24.7-19.1
		c2.2,3.1,4.3,6.3,6.2,9.7L392.5,340.5z M444.1,256c-6.8,0-13.6-1.2-20-3.5c-0.1-1.1-0.4-2.2-1-3.2c-5.2-10.6-12.6-19.9-21.7-27.5
		v-67.2c11-11.4,26.2-17.9,42-18.1c15.9-0.2,31.1,6,42.5,17.1h-33.3c-4.7,0-8.5,3.8-8.5,8.5v68.3c0,4.7,3.8,8.5,8.5,8.5h33.3
		C474.8,249.9,459.8,256,444.1,256z"/>
	<path class="st0" d="M282,460.8v17.1c23.6,0,42.6-19.1,42.7-42.7h-17.1C307.6,449.3,296.1,460.8,282,460.8z"/>
</g>
</svg>
